<svg xmlns="http://www.w3.org/2000/svg" viewBox="0 0 740 740" width="1000" height="1000">

      <defs>
        <linearGradient id="goldGrad" x1="0%" y1="0%" x2="100%" y2="100%">
          <stop offset="0%" stop-color="#FFD700" />
          <stop offset="50%" stop-color="#F1B31C" />
          <stop offset="100%" stop-color="#D99B0C" />
        </linearGradient>
        <filter id="softGlow" x="-20%" y="-20%" width="140%" height="140%">
          <feDropShadow dx="0" dy="4" stdDeviation="6" flood-color="#000000" flood-opacity="0.15" />
        </filter>
      </defs>
    
<rect width="740" height="740" rx="36" fill="#FFFFFF" stroke="rgba(15, 23, 42, 0.1)" stroke-width="2" />
<g fill="#0F172A">
  <rect x="262" y="82" width="16" height="16" rx="6" />
  <rect x="282" y="82" width="16" height="16" rx="6" />
  <rect x="302" y="82" width="16" height="16" rx="6" />
  <rect x="342" y="82" width="16" height="16" rx="6" />
  <rect x="402" y="82" width="16" height="16" rx="6" />
  <rect x="442" y="82" width="16" height="16" rx="6" />
  <rect x="462" y="82" width="16" height="16" rx="6" />
  <rect x="242" y="102" width="16" height="16" rx="6" />
  <rect x="262" y="102" width="16" height="16" rx="6" />
  <rect x="282" y="102" width="16" height="16" rx="6" />
  <rect x="322" y="102" width="16" height="16" rx="6" />
  <rect x="362" y="102" width="16" height="16" rx="6" />
  <rect x="382" y="102" width="16" height="16" rx="6" />
  <rect x="402" y="102" width="16" height="16" rx="6" />
  <rect x="462" y="102" width="16" height="16" rx="6" />
  <rect x="482" y="102" width="16" height="16" rx="6" />
  <rect x="302" y="122" width="16" height="16" rx="6" />
  <rect x="322" y="122" width="16" height="16" rx="6" />
  <rect x="342" y="122" width="16" height="16" rx="6" />
  <rect x="362" y="122" width="16" height="16" rx="6" />
  <rect x="402" y="122" width="16" height="16" rx="6" />
  <rect x="442" y="122" width="16" height="16" rx="6" />
  <rect x="262" y="142" width="16" height="16" rx="6" />
  <rect x="302" y="142" width="16" height="16" rx="6" />
  <rect x="322" y="142" width="16" height="16" rx="6" />
  <rect x="342" y="142" width="16" height="16" rx="6" />
  <rect x="362" y="142" width="16" height="16" rx="6" />
  <rect x="382" y="142" width="16" height="16" rx="6" />
  <rect x="462" y="142" width="16" height="16" rx="6" />
  <rect x="242" y="162" width="16" height="16" rx="6" />
  <rect x="282" y="162" width="16" height="16" rx="6" />
  <rect x="302" y="162" width="16" height="16" rx="6" />
  <rect x="362" y="162" width="16" height="16" rx="6" />
  <rect x="422" y="162" width="16" height="16" rx="6" />
  <rect x="442" y="162" width="16" height="16" rx="6" />
  <rect x="462" y="162" width="16" height="16" rx="6" />
  <rect x="282" y="182" width="16" height="16" rx="6" />
  <rect x="342" y="182" width="16" height="16" rx="6" />
  <rect x="442" y="182" width="16" height="16" rx="6" />
  <rect x="462" y="182" width="16" height="16" rx="6" />
  <rect x="482" y="182" width="16" height="16" rx="6" />
  <rect x="242" y="202" width="16" height="16" rx="6" />
  <rect x="282" y="202" width="16" height="16" rx="6" />
  <rect x="322" y="202" width="16" height="16" rx="6" />
  <rect x="362" y="202" width="16" height="16" rx="6" />
  <rect x="402" y="202" width="16" height="16" rx="6" />
  <rect x="442" y="202" width="16" height="16" rx="6" />
  <rect x="482" y="202" width="16" height="16" rx="6" />
  <rect x="262" y="222" width="16" height="16" rx="6" />
  <rect x="302" y="222" width="16" height="16" rx="6" />
  <rect x="342" y="222" width="16" height="16" rx="6" />
  <rect x="362" y="222" width="16" height="16" rx="6" />
  <rect x="402" y="222" width="16" height="16" rx="6" />
  <rect x="422" y="222" width="16" height="16" rx="6" />
  <rect x="482" y="222" width="16" height="16" rx="6" />
  <rect x="82" y="242" width="16" height="16" rx="6" />
  <rect x="122" y="242" width="16" height="16" rx="6" />
  <rect x="162" y="242" width="16" height="16" rx="6" />
  <rect x="202" y="242" width="16" height="16" rx="6" />
  <rect x="262" y="242" width="16" height="16" rx="6" />
  <rect x="362" y="242" width="16" height="16" rx="6" />
  <rect x="382" y="242" width="16" height="16" rx="6" />
  <rect x="422" y="242" width="16" height="16" rx="6" />
  <rect x="562" y="242" width="16" height="16" rx="6" />
  <rect x="622" y="242" width="16" height="16" rx="6" />
  <rect x="82" y="262" width="16" height="16" rx="6" />
  <rect x="142" y="262" width="16" height="16" rx="6" />
  <rect x="162" y="262" width="16" height="16" rx="6" />
  <rect x="182" y="262" width="16" height="16" rx="6" />
  <rect x="222" y="262" width="16" height="16" rx="6" />
  <rect x="262" y="262" width="16" height="16" rx="6" />
  <rect x="282" y="262" width="16" height="16" rx="6" />
  <rect x="302" y="262" width="16" height="16" rx="6" />
  <rect x="362" y="262" width="16" height="16" rx="6" />
  <rect x="382" y="262" width="16" height="16" rx="6" />
  <rect x="422" y="262" width="16" height="16" rx="6" />
  <rect x="482" y="262" width="16" height="16" rx="6" />
  <rect x="522" y="262" width="16" height="16" rx="6" />
  <rect x="582" y="262" width="16" height="16" rx="6" />
  <rect x="642" y="262" width="16" height="16" rx="6" />
  <rect x="82" y="282" width="16" height="16" rx="6" />
  <rect x="122" y="282" width="16" height="16" rx="6" />
  <rect x="142" y="282" width="16" height="16" rx="6" />
  <rect x="162" y="282" width="16" height="16" rx="6" />
  <rect x="202" y="282" width="16" height="16" rx="6" />
  <rect x="242" y="282" width="16" height="16" rx="6" />
  <rect x="282" y="282" width="16" height="16" rx="6" />
  <rect x="342" y="282" width="16" height="16" rx="6" />
  <rect x="442" y="282" width="16" height="16" rx="6" />
  <rect x="482" y="282" width="16" height="16" rx="6" />
  <rect x="502" y="282" width="16" height="16" rx="6" />
  <rect x="522" y="282" width="16" height="16" rx="6" />
  <rect x="542" y="282" width="16" height="16" rx="6" />
  <rect x="562" y="282" width="16" height="16" rx="6" />
  <rect x="602" y="282" width="16" height="16" rx="6" />
  <rect x="622" y="282" width="16" height="16" rx="6" />
  <rect x="642" y="282" width="16" height="16" rx="6" />
  <rect x="82" y="302" width="16" height="16" rx="6" />
  <rect x="142" y="302" width="16" height="16" rx="6" />
  <rect x="302" y="302" width="16" height="16" rx="6" />
  <rect x="382" y="302" width="16" height="16" rx="6" />
  <rect x="422" y="302" width="16" height="16" rx="6" />
  <rect x="442" y="302" width="16" height="16" rx="6" />
  <rect x="482" y="302" width="16" height="16" rx="6" />
  <rect x="502" y="302" width="16" height="16" rx="6" />
  <rect x="542" y="302" width="16" height="16" rx="6" />
  <rect x="622" y="302" width="16" height="16" rx="6" />
  <rect x="102" y="322" width="16" height="16" rx="6" />
  <rect x="142" y="322" width="16" height="16" rx="6" />
  <rect x="202" y="322" width="16" height="16" rx="6" />
  <rect x="222" y="322" width="16" height="16" rx="6" />
  <rect x="242" y="322" width="16" height="16" rx="6" />
  <rect x="262" y="322" width="16" height="16" rx="6" />
  <rect x="282" y="322" width="16" height="16" rx="6" />
  <rect x="322" y="322" width="16" height="16" rx="6" />
  <rect x="402" y="322" width="16" height="16" rx="6" />
  <rect x="422" y="322" width="16" height="16" rx="6" />
  <rect x="462" y="322" width="16" height="16" rx="6" />
  <rect x="482" y="322" width="16" height="16" rx="6" />
  <rect x="502" y="322" width="16" height="16" rx="6" />
  <rect x="522" y="322" width="16" height="16" rx="6" />
  <rect x="582" y="322" width="16" height="16" rx="6" />
  <rect x="622" y="322" width="16" height="16" rx="6" />
  <rect x="642" y="322" width="16" height="16" rx="6" />
  <rect x="102" y="342" width="16" height="16" rx="6" />
  <rect x="122" y="342" width="16" height="16" rx="6" />
  <rect x="182" y="342" width="16" height="16" rx="6" />
  <rect x="242" y="342" width="16" height="16" rx="6" />
  <rect x="262" y="342" width="16" height="16" rx="6" />
  <rect x="342" y="342" width="16" height="16" rx="6" />
  <rect x="382" y="342" width="16" height="16" rx="6" />
  <rect x="402" y="342" width="16" height="16" rx="6" />
  <rect x="422" y="342" width="16" height="16" rx="6" />
  <rect x="442" y="342" width="16" height="16" rx="6" />
  <rect x="502" y="342" width="16" height="16" rx="6" />
  <rect x="522" y="342" width="16" height="16" rx="6" />
  <rect x="582" y="342" width="16" height="16" rx="6" />
  <rect x="642" y="342" width="16" height="16" rx="6" />
  <rect x="102" y="362" width="16" height="16" rx="6" />
  <rect x="142" y="362" width="16" height="16" rx="6" />
  <rect x="162" y="362" width="16" height="16" rx="6" />
  <rect x="202" y="362" width="16" height="16" rx="6" />
  <rect x="222" y="362" width="16" height="16" rx="6" />
  <rect x="262" y="362" width="16" height="16" rx="6" />
  <rect x="282" y="362" width="16" height="16" rx="6" />
  <rect x="302" y="362" width="16" height="16" rx="6" />
  <rect x="362" y="362" width="16" height="16" rx="6" />
  <rect x="382" y="362" width="16" height="16" rx="6" />
  <rect x="402" y="362" width="16" height="16" rx="6" />
  <rect x="442" y="362" width="16" height="16" rx="6" />
  <rect x="542" y="362" width="16" height="16" rx="6" />
  <rect x="562" y="362" width="16" height="16" rx="6" />
  <rect x="582" y="362" width="16" height="16" rx="6" />
  <rect x="622" y="362" width="16" height="16" rx="6" />
  <rect x="642" y="362" width="16" height="16" rx="6" />
  <rect x="82" y="382" width="16" height="16" rx="6" />
  <rect x="122" y="382" width="16" height="16" rx="6" />
  <rect x="142" y="382" width="16" height="16" rx="6" />
  <rect x="222" y="382" width="16" height="16" rx="6" />
  <rect x="302" y="382" width="16" height="16" rx="6" />
  <rect x="322" y="382" width="16" height="16" rx="6" />
  <rect x="342" y="382" width="16" height="16" rx="6" />
  <rect x="362" y="382" width="16" height="16" rx="6" />
  <rect x="402" y="382" width="16" height="16" rx="6" />
  <rect x="422" y="382" width="16" height="16" rx="6" />
  <rect x="462" y="382" width="16" height="16" rx="6" />
  <rect x="482" y="382" width="16" height="16" rx="6" />
  <rect x="582" y="382" width="16" height="16" rx="6" />
  <rect x="622" y="382" width="16" height="16" rx="6" />
  <rect x="102" y="402" width="16" height="16" rx="6" />
  <rect x="122" y="402" width="16" height="16" rx="6" />
  <rect x="162" y="402" width="16" height="16" rx="6" />
  <rect x="202" y="402" width="16" height="16" rx="6" />
  <rect x="222" y="402" width="16" height="16" rx="6" />
  <rect x="282" y="402" width="16" height="16" rx="6" />
  <rect x="322" y="402" width="16" height="16" rx="6" />
  <rect x="362" y="402" width="16" height="16" rx="6" />
  <rect x="382" y="402" width="16" height="16" rx="6" />
  <rect x="422" y="402" width="16" height="16" rx="6" />
  <rect x="482" y="402" width="16" height="16" rx="6" />
  <rect x="502" y="402" width="16" height="16" rx="6" />
  <rect x="522" y="402" width="16" height="16" rx="6" />
  <rect x="582" y="402" width="16" height="16" rx="6" />
  <rect x="622" y="402" width="16" height="16" rx="6" />
  <rect x="642" y="402" width="16" height="16" rx="6" />
  <rect x="222" y="422" width="16" height="16" rx="6" />
  <rect x="262" y="422" width="16" height="16" rx="6" />
  <rect x="282" y="422" width="16" height="16" rx="6" />
  <rect x="322" y="422" width="16" height="16" rx="6" />
  <rect x="362" y="422" width="16" height="16" rx="6" />
  <rect x="382" y="422" width="16" height="16" rx="6" />
  <rect x="422" y="422" width="16" height="16" rx="6" />
  <rect x="442" y="422" width="16" height="16" rx="6" />
  <rect x="482" y="422" width="16" height="16" rx="6" />
  <rect x="502" y="422" width="16" height="16" rx="6" />
  <rect x="522" y="422" width="16" height="16" rx="6" />
  <rect x="582" y="422" width="16" height="16" rx="6" />
  <rect x="602" y="422" width="16" height="16" rx="6" />
  <rect x="642" y="422" width="16" height="16" rx="6" />
  <rect x="82" y="442" width="16" height="16" rx="6" />
  <rect x="142" y="442" width="16" height="16" rx="6" />
  <rect x="162" y="442" width="16" height="16" rx="6" />
  <rect x="202" y="442" width="16" height="16" rx="6" />
  <rect x="222" y="442" width="16" height="16" rx="6" />
  <rect x="242" y="442" width="16" height="16" rx="6" />
  <rect x="282" y="442" width="16" height="16" rx="6" />
  <rect x="302" y="442" width="16" height="16" rx="6" />
  <rect x="322" y="442" width="16" height="16" rx="6" />
  <rect x="342" y="442" width="16" height="16" rx="6" />
  <rect x="442" y="442" width="16" height="16" rx="6" />
  <rect x="502" y="442" width="16" height="16" rx="6" />
  <rect x="622" y="442" width="16" height="16" rx="6" />
  <rect x="642" y="442" width="16" height="16" rx="6" />
  <rect x="102" y="462" width="16" height="16" rx="6" />
  <rect x="122" y="462" width="16" height="16" rx="6" />
  <rect x="142" y="462" width="16" height="16" rx="6" />
  <rect x="222" y="462" width="16" height="16" rx="6" />
  <rect x="242" y="462" width="16" height="16" rx="6" />
  <rect x="382" y="462" width="16" height="16" rx="6" />
  <rect x="422" y="462" width="16" height="16" rx="6" />
  <rect x="462" y="462" width="16" height="16" rx="6" />
  <rect x="482" y="462" width="16" height="16" rx="6" />
  <rect x="522" y="462" width="16" height="16" rx="6" />
  <rect x="542" y="462" width="16" height="16" rx="6" />
  <rect x="582" y="462" width="16" height="16" rx="6" />
  <rect x="622" y="462" width="16" height="16" rx="6" />
  <rect x="82" y="482" width="16" height="16" rx="6" />
  <rect x="142" y="482" width="16" height="16" rx="6" />
  <rect x="162" y="482" width="16" height="16" rx="6" />
  <rect x="182" y="482" width="16" height="16" rx="6" />
  <rect x="202" y="482" width="16" height="16" rx="6" />
  <rect x="222" y="482" width="16" height="16" rx="6" />
  <rect x="242" y="482" width="16" height="16" rx="6" />
  <rect x="262" y="482" width="16" height="16" rx="6" />
  <rect x="282" y="482" width="16" height="16" rx="6" />
  <rect x="302" y="482" width="16" height="16" rx="6" />
  <rect x="322" y="482" width="16" height="16" rx="6" />
  <rect x="402" y="482" width="16" height="16" rx="6" />
  <rect x="422" y="482" width="16" height="16" rx="6" />
  <rect x="442" y="482" width="16" height="16" rx="6" />
  <rect x="482" y="482" width="16" height="16" rx="6" />
  <rect x="502" y="482" width="16" height="16" rx="6" />
  <rect x="522" y="482" width="16" height="16" rx="6" />
  <rect x="542" y="482" width="16" height="16" rx="6" />
  <rect x="562" y="482" width="16" height="16" rx="6" />
  <rect x="242" y="502" width="16" height="16" rx="6" />
  <rect x="262" y="502" width="16" height="16" rx="6" />
  <rect x="302" y="502" width="16" height="16" rx="6" />
  <rect x="322" y="502" width="16" height="16" rx="6" />
  <rect x="342" y="502" width="16" height="16" rx="6" />
  <rect x="382" y="502" width="16" height="16" rx="6" />
  <rect x="402" y="502" width="16" height="16" rx="6" />
  <rect x="482" y="502" width="16" height="16" rx="6" />
  <rect x="562" y="502" width="16" height="16" rx="6" />
  <rect x="602" y="502" width="16" height="16" rx="6" />
  <rect x="622" y="502" width="16" height="16" rx="6" />
  <rect x="642" y="502" width="16" height="16" rx="6" />
  <rect x="262" y="522" width="16" height="16" rx="6" />
  <rect x="282" y="522" width="16" height="16" rx="6" />
  <rect x="322" y="522" width="16" height="16" rx="6" />
  <rect x="362" y="522" width="16" height="16" rx="6" />
  <rect x="382" y="522" width="16" height="16" rx="6" />
  <rect x="402" y="522" width="16" height="16" rx="6" />
  <rect x="422" y="522" width="16" height="16" rx="6" />
  <rect x="462" y="522" width="16" height="16" rx="6" />
  <rect x="482" y="522" width="16" height="16" rx="6" />
  <rect x="522" y="522" width="16" height="16" rx="6" />
  <rect x="562" y="522" width="16" height="16" rx="6" />
  <rect x="582" y="522" width="16" height="16" rx="6" />
  <rect x="622" y="522" width="16" height="16" rx="6" />
  <rect x="642" y="522" width="16" height="16" rx="6" />
  <rect x="302" y="542" width="16" height="16" rx="6" />
  <rect x="342" y="542" width="16" height="16" rx="6" />
  <rect x="362" y="542" width="16" height="16" rx="6" />
  <rect x="402" y="542" width="16" height="16" rx="6" />
  <rect x="422" y="542" width="16" height="16" rx="6" />
  <rect x="442" y="542" width="16" height="16" rx="6" />
  <rect x="482" y="542" width="16" height="16" rx="6" />
  <rect x="562" y="542" width="16" height="16" rx="6" />
  <rect x="582" y="542" width="16" height="16" rx="6" />
  <rect x="622" y="542" width="16" height="16" rx="6" />
  <rect x="642" y="542" width="16" height="16" rx="6" />
  <rect x="242" y="562" width="16" height="16" rx="6" />
  <rect x="302" y="562" width="16" height="16" rx="6" />
  <rect x="362" y="562" width="16" height="16" rx="6" />
  <rect x="382" y="562" width="16" height="16" rx="6" />
  <rect x="402" y="562" width="16" height="16" rx="6" />
  <rect x="422" y="562" width="16" height="16" rx="6" />
  <rect x="482" y="562" width="16" height="16" rx="6" />
  <rect x="502" y="562" width="16" height="16" rx="6" />
  <rect x="522" y="562" width="16" height="16" rx="6" />
  <rect x="542" y="562" width="16" height="16" rx="6" />
  <rect x="562" y="562" width="16" height="16" rx="6" />
  <rect x="622" y="562" width="16" height="16" rx="6" />
  <rect x="282" y="582" width="16" height="16" rx="6" />
  <rect x="342" y="582" width="16" height="16" rx="6" />
  <rect x="362" y="582" width="16" height="16" rx="6" />
  <rect x="382" y="582" width="16" height="16" rx="6" />
  <rect x="422" y="582" width="16" height="16" rx="6" />
  <rect x="482" y="582" width="16" height="16" rx="6" />
  <rect x="562" y="582" width="16" height="16" rx="6" />
  <rect x="602" y="582" width="16" height="16" rx="6" />
  <rect x="242" y="602" width="16" height="16" rx="6" />
  <rect x="302" y="602" width="16" height="16" rx="6" />
  <rect x="322" y="602" width="16" height="16" rx="6" />
  <rect x="362" y="602" width="16" height="16" rx="6" />
  <rect x="422" y="602" width="16" height="16" rx="6" />
  <rect x="482" y="602" width="16" height="16" rx="6" />
  <rect x="542" y="602" width="16" height="16" rx="6" />
  <rect x="562" y="602" width="16" height="16" rx="6" />
  <rect x="582" y="602" width="16" height="16" rx="6" />
  <rect x="642" y="602" width="16" height="16" rx="6" />
  <rect x="262" y="622" width="16" height="16" rx="6" />
  <rect x="282" y="622" width="16" height="16" rx="6" />
  <rect x="302" y="622" width="16" height="16" rx="6" />
  <rect x="322" y="622" width="16" height="16" rx="6" />
  <rect x="362" y="622" width="16" height="16" rx="6" />
  <rect x="402" y="622" width="16" height="16" rx="6" />
  <rect x="422" y="622" width="16" height="16" rx="6" />
  <rect x="442" y="622" width="16" height="16" rx="6" />
  <rect x="462" y="622" width="16" height="16" rx="6" />
  <rect x="482" y="622" width="16" height="16" rx="6" />
  <rect x="522" y="622" width="16" height="16" rx="6" />
  <rect x="562" y="622" width="16" height="16" rx="6" />
  <rect x="622" y="622" width="16" height="16" rx="6" />
  <rect x="242" y="642" width="16" height="16" rx="6" />
  <rect x="302" y="642" width="16" height="16" rx="6" />
  <rect x="322" y="642" width="16" height="16" rx="6" />
  <rect x="342" y="642" width="16" height="16" rx="6" />
  <rect x="382" y="642" width="16" height="16" rx="6" />
  <rect x="402" y="642" width="16" height="16" rx="6" />
  <rect x="422" y="642" width="16" height="16" rx="6" />
  <rect x="462" y="642" width="16" height="16" rx="6" />
  <rect x="482" y="642" width="16" height="16" rx="6" />
  <rect x="562" y="642" width="16" height="16" rx="6" />
  <rect x="622" y="642" width="16" height="16" rx="6" />
  <rect x="642" y="642" width="16" height="16" rx="6" />
</g>
<rect x="80" y="80" width="140" height="140" rx="24" fill="url(#goldGrad)" />
<rect x="100" y="100" width="100" height="100" rx="16" fill="#FFFFFF" />
<rect x="120" y="120" width="60" height="60" rx="10" fill="#0F172A" />
<rect x="520" y="80" width="140" height="140" rx="24" fill="url(#goldGrad)" />
<rect x="540" y="100" width="100" height="100" rx="16" fill="#FFFFFF" />
<rect x="560" y="120" width="60" height="60" rx="10" fill="#0F172A" />
<rect x="80" y="520" width="140" height="140" rx="24" fill="url(#goldGrad)" />
<rect x="100" y="540" width="100" height="100" rx="16" fill="#FFFFFF" />
<rect x="120" y="560" width="60" height="60" rx="10" fill="#0F172A" />
</svg>